# xmcd
#
# Track frame offsets:
# 150
# 14605
# 27452
# 39700
# 53057
# 61930
# 77662
# 90620
# 99812
# 110635
# 120737
# 130572
# 147300
# 156765
# 173715
# 184812
# 200750
#
# Disc length: 2851 seconds
#
#
# Revision: 1
# Processed by: cddbd v1.4PL0 Copyright (c) Steve Scherf et al.
# Submitted via: FreeRIP 2.52 
#
DISCID=e40b2111
DTITLE=Kenny Rogers - Christmas From The Heart
DYEAR=1998
DGENRE=Country
TTITLE0=It's Just Not Christmas
TTITLE1=The Christmas Song
TTITLE2=My Favorite Things
TTITLE3=White Christmas
TTITLE4=Let It Snow, Let It Snow, Let It Snow
TTITLE5=O Come All Ye Faithful
TTITLE6=Hey Little Christmas Tree
TTITLE7=Merry Christmas
TTITLE8=Money Isn't What Really Matters
TTITLE9=Heroes
TTITLE10=I Wanna Be A Christmas Present
TTITLE11=The Ballerina Song
TTITLE12=Help Somebody Find Their Way
TTITLE13=If I Only Had Your Heart
TTITLE14=Mister Perfect
TTITLE15=I Promise You
TTITLE16=The Toy Shoppe
EXTD=
EXTT0=
EXTT1=
EXTT2=
EXTT3=
EXTT4=
EXTT5=
EXTT6=
EXTT7=
EXTT8=
EXTT9=
EXTT10=
EXTT11=
EXTT12=
EXTT13=
EXTT14=
EXTT15=
EXTT16=
PLAYORDER=
